<?xml version="1.0" encoding="UTF-8"?>
<svg id="Capa_2" xmlns="http://www.w3.org/2000/svg" version="1.1" viewBox="0 0 249.4 249.4">
  <!-- Generator: Adobe Illustrator 29.2.1, SVG Export Plug-In . SVG Version: 2.1.0 Build 116)  -->
  <defs>
    <style>
      .st0 {
        fill: #00ff4e;
      }

      .st1 {
        fill: #161d15;
      }

      .st2 {
        fill: #fff;
      }
    </style>
  </defs>
  <g id="Capa_1-2">
    <rect class="st1" width="249.4" height="249.4" rx="61.4" ry="61.4"/>
  </g>
  <g>
    <polygon class="st2" points="70.9 117.4 63.9 133.9 57.1 117.4 52.2 117.4 61.4 138.6 55.7 150.4 60.6 150.4 65 140.9 75.8 117.4 70.9 117.4"/>
    <path class="st2" d="M93.3,120.6c-.8-1.1-1.8-1.9-3-2.6-1.4-.7-3-1.1-4.7-1.1s-4.1.5-5.8,1.6-3.1,2.5-4.1,4.4c-1,1.8-1.5,3.9-1.5,6.2s.5,4.3,1.5,6.2c1,1.8,2.4,3.3,4.1,4.3,1.7,1.1,3.7,1.6,5.8,1.6s3.3-.4,4.8-1.1c1.2-.6,2.2-1.5,3-2.5v3.1h4.5v-23.3h-4.5v3.2ZM91.6,134.8c-1.3,1.5-3.1,2.2-5.3,2.2s-2.8-.3-3.9-1c-1.1-.7-2-1.6-2.7-2.8-.6-1.2-1-2.6-1-4.1s.3-2.9,1-4.1c.6-1.2,1.5-2.1,2.6-2.8,1.1-.7,2.4-1,3.9-1s2.8.3,3.8,1c1.1.7,2,1.6,2.6,2.8.6,1.2.9,2.6.9,4.2,0,2.3-.7,4.2-2,5.7Z"/>
    <path class="st2" d="M118.7,120.5c-.8-1.1-1.8-1.9-3-2.5-1.4-.7-3-1.1-4.9-1.1s-4,.5-5.7,1.5c-1.7,1-3,2.4-4,4.2-1,1.7-1.4,3.7-1.4,6s.5,4.2,1.5,6c1,1.8,2.3,3.2,4,4.2,1.7,1,3.6,1.5,5.7,1.5s3.4-.4,4.8-1.1c1.2-.6,2.2-1.5,3-2.6v3.1c0,2.1-.7,3.8-2.1,5.1-1.4,1.3-3.3,1.9-5.6,1.9s-3.3-.3-4.7-1c-1.3-.6-2.4-1.6-3.4-2.8l-2.9,2.9c1.1,1.6,2.6,2.8,4.5,3.7,1.8.9,4,1.3,6.4,1.3s4.5-.5,6.4-1.4c1.8-.9,3.3-2.2,4.3-3.9,1-1.7,1.5-3.6,1.5-5.9v-22.3h-4.4v3.1ZM118,132.6c-.6,1.1-1.4,2-2.5,2.6-1.1.6-2.4.9-3.8.9s-2.7-.3-3.8-1c-1.1-.6-2-1.5-2.6-2.7-.6-1.1-1-2.4-1-3.9s.3-2.8,1-3.9c.6-1.1,1.5-2,2.6-2.6,1.1-.6,2.4-1,3.9-1s2.7.3,3.8,1c1.1.6,1.9,1.5,2.5,2.6.6,1.1.9,2.4.9,3.9s-.3,2.8-.9,3.9Z"/>
    <path class="st2" d="M144.2,120.6c-.8-1.1-1.8-1.9-3-2.6-1.4-.7-3-1.1-4.7-1.1s-4.1.5-5.8,1.6c-1.7,1.1-3.1,2.5-4.1,4.4-1,1.8-1.5,3.9-1.5,6.2s.5,4.3,1.5,6.2c1,1.8,2.4,3.3,4.1,4.3,1.7,1.1,3.7,1.6,5.8,1.6s3.3-.4,4.8-1.1c1.2-.6,2.2-1.5,3-2.5v3.1h4.5v-23.3h-4.5v3.2ZM142.5,134.8c-1.3,1.5-3.1,2.2-5.3,2.2s-2.8-.3-3.9-1c-1.1-.7-2-1.6-2.7-2.8-.6-1.2-1-2.6-1-4.1s.3-2.9,1-4.1c.6-1.2,1.5-2.1,2.6-2.8,1.1-.7,2.4-1,3.9-1s2.8.3,3.8,1c1.1.7,2,1.6,2.6,2.8.6,1.2.9,2.6.9,4.2,0,2.3-.7,4.2-2,5.7Z"/>
    <path class="st2" d="M191.2,118.8c-.6-.6-1.4-1.1-2.2-1.5-1.3-.6-2.7-.9-4.3-.9s-4.1.5-5.9,1.6c-1.7,1.1-3.1,2.5-4.1,4.4,0,.1-.1.2-.2.4-.2-.7-.5-1.4-.8-2-.8-1.4-1.9-2.4-3.3-3.2-1.4-.8-3-1.2-4.9-1.2s-3.4.4-4.8,1.2c-.6.3-1.1.7-1.6,1.1v-13.6h-7.5v35.6h7.5v-13.6c0-.8.2-1.5.5-2.2.4-.6.8-1.1,1.5-1.4.6-.3,1.3-.5,2.1-.5,1.2,0,2.2.4,2.9,1.2.8.8,1.2,1.8,1.2,3v13.6h7.5v-5.3c1,1.7,2.3,3.1,3.9,4.1,1.7,1.1,3.7,1.6,5.8,1.6s3.1-.3,4.4-.9c.8-.4,1.6-.9,2.2-1.5v1.9h7.4v-23.8h-7.4v2ZM190,132.8c-1,1-2.2,1.6-3.8,1.6s-1.9-.2-2.7-.7c-.8-.5-1.4-1.1-1.9-2-.5-.8-.7-1.8-.7-2.9s.2-2,.7-2.9c.5-.8,1.1-1.5,1.9-2,.8-.5,1.7-.7,2.7-.7s2,.2,2.8.7c.8.5,1.4,1.1,1.9,2,.4.8.6,1.8.6,2.9,0,1.7-.5,3-1.4,4.1Z"/>
    <path class="st2" d="M222.5,116.9h-7.5v13.7c0,1.2-.3,2.2-1,2.9-.6.7-1.5,1.1-2.6,1.1s-1.4-.2-2-.5c-.6-.3-1-.8-1.3-1.4-.3-.6-.4-1.3-.4-2.1v-13.7h-7.5v13.8c0,2.1.5,3.9,1.4,5.5.9,1.6,2.3,2.8,4,3.7s3.7,1.4,5.8,1.4,4.2-.4,5.8-1.3c1.7-.9,3-2.1,3.9-3.7.9-1.6,1.4-3.4,1.4-5.5v-13.8Z"/>
    <path class="st2" d="M239.5,127.8c-.9-.6-1.8-1-2.8-1.3-1-.3-1.9-.6-2.8-.8-.9-.2-1.6-.5-2.2-.8-.6-.3-.9-.7-.9-1.2s.2-.8.6-1c.4-.3,1.1-.4,1.9-.4s1.8.2,2.7.6c.9.4,1.8,1,2.5,1.9l4.3-4.4c-1-1.4-2.4-2.4-4.2-3.1-1.7-.7-3.6-1.1-5.6-1.1s-3.7.3-5.1,1c-1.4.7-2.5,1.5-3.3,2.7-.8,1.1-1.2,2.5-1.2,4s.3,2.7.8,3.6c.6.9,1.3,1.6,2.2,2.2.9.5,1.8.9,2.8,1.2,1,.3,1.9.6,2.8.8.9.2,1.6.5,2.2.8.6.3.8.7.8,1.3s-.2.9-.7,1.1c-.5.3-1.1.4-1.9.4-1.3,0-2.5-.2-3.6-.7-1.1-.5-2-1.1-2.8-2l-4.3,4.3c.8.9,1.8,1.7,3,2.3,1.1.7,2.4,1.2,3.8,1.6,1.4.4,2.8.6,4.2.6,3,0,5.3-.7,7.1-2.1,1.7-1.4,2.6-3.2,2.6-5.6s-.3-2.7-.8-3.7c-.6-.9-1.3-1.7-2.2-2.3Z"/>
  </g>
  <path class="st0" d="M40.7,141.6h-22.9c-5.9,0-10.6-4.8-10.6-10.6s4.8-10.6,10.6-10.6h22.9c5.9,0,10.6,4.8,10.6,10.6s-4.8,10.6-10.6,10.6ZM17.8,121.7c-5.1,0-9.3,4.2-9.3,9.3s4.2,9.3,9.3,9.3h22.9c5.1,0,9.3-4.2,9.3-9.3s-4.2-9.3-9.3-9.3h-22.9Z"/>
  <g>
    <path class="st0" d="M17.3,134.4h.9v-6.4h-.9v-1.8h3.6c2.4,0,3.6,1.1,3.6,3.5v2.9c0,2.4-1.2,3.5-3.6,3.5h-3.6v-1.8ZM20.9,134.4c1.3,0,1.8-.6,1.8-1.9v-2.7c0-1.1-.5-1.7-1.8-1.7h-.8v6.4h.8Z"/>
    <path class="st0" d="M26.5,126.2h6.3v1.8h-4.4v2.3h4.2v1.8h-4.2v2.3h4.6v1.8h-6.5v-10Z"/>
    <path class="st0" d="M34.4,126.2h1.9l1.9,9h.3l1.9-9h1.9l-2.2,10h-3.5l-2.2-10Z"/>
  </g>
</svg>