<?xml version="1.0" encoding="UTF-8"?>
<svg id="Capa_2" xmlns="http://www.w3.org/2000/svg" version="1.1" viewBox="0 0 59.1 59.1">
  <!-- Generator: Adobe Illustrator 29.2.1, SVG Export Plug-In . SVG Version: 2.1.0 Build 116)  -->
  <defs>
    <style>
      .st0 {
        fill: #00ff4e;
      }

      .st1 {
        fill: #161d15;
      }
    </style>
  </defs>
  <g id="Capa_1-2">
    <g>
      <rect class="st1" x="1.2" y="1.2" width="56.7" height="56.7" rx="5.8" ry="5.8"/>
      <path class="st0" d="M52.1,2.4c2.5,0,4.6,2.1,4.6,4.6v45.1c0,2.5-2.1,4.6-4.6,4.6H7c-2.5,0-4.6-2.1-4.6-4.6V7c0-2.5,2.1-4.6,4.6-4.6h45.1M52.1,0H7C3.1,0,0,3.1,0,7v45.1C0,55.9,3.1,59.1,7,59.1h45.1c3.9,0,7-3.1,7-7V7c0-3.9-3.1-7-7-7h0Z"/>
    </g>
  </g>
  <g>
    <path class="st0" d="M7.4,35.6h1.6v-11.6h-1.6v-3.3h6.5c4.3,0,6.5,2,6.5,6.3v5.2c0,4.3-2.2,6.3-6.5,6.3h-6.5v-3.3.2ZM13.9,35.6c2.4,0,3.3-1.1,3.3-3.4v-4.9c0-2-.9-3.1-3.3-3.1h-1.4v11.6h1.4v-.2Z"/>
    <path class="st0" d="M24,20.7h11.4v3.3h-8v4.2h7.6v3.3h-7.6v4.2h8.3v3.3h-11.8v-18.1h0Z"/>
    <path class="st0" d="M38.3,20.7h3.4l3.4,16.3h.5l3.4-16.3h3.4l-4,18.1h-6.3s-4-18.1-4-18.1Z"/>
  </g>
</svg>